<svg width="52" height="2042" viewBox="0 0 52 2042" fill="none" xmlns="http://www.w3.org/2000/svg">
<path d="M26.0001 0V316C9 316 1.00012 324 1.00012 341C1.00012 358.5 8.5 366 26.0001 366C43.5002 366 51.0001 357.5 51.0001 341C51.0001 325 26.0001 325.5 26.0001 341V377V657C9.00012 657 1.00012 665.5 1.00012 682C1 698.699 9 707 26.0001 707C44 707 51.0001 697 51.0001 682C51.0001 668.5 26.0001 668.5 26.0001 682V994C8.28602 997.262 1.00012 1003 1.00012 1019C1.00012 1035.5 8.00012 1044 26.0001 1044C45.5001 1044 51.0001 1034 51.0001 1019C51.0001 1006.5 26.0001 1004 26.0001 1019V1335C10.0001 1335 1.00012 1344.5 1.00012 1360C1.00012 1376 9.00012 1385 26.0001 1385C42.6927 1385 51.0001 1377 51.0001 1360C51.0001 1346 26.0001 1343.5 26.0001 1360V1676C9.00012 1676 1.00012 1685 1.00012 1701C1.00012 1715.5 9.00012 1726 26.0001 1726C42.5001 1726 51.0001 1717.5 51.0001 1701C51.0001 1687.5 26.0001 1688 26.0001 1701V2042" stroke="black"/>
</svg>
